<svg width="32" height="34" viewBox="0 0 32 34" fill="none" xmlns="http://www.w3.org/2000/svg">
<path opacity="0.25" d="M15.583 0C24.1891 0 31.166 6.97719 31.166 15.583C31.1658 24.1887 24.189 31.165 15.583 31.165C6.97711 31.1649 0.000170906 24.1886 0 15.583C0 6.97725 6.977 9.19656e-05 15.583 0Z" fill="#FF2222"/>
<circle opacity="0.33" cx="15.5833" cy="15.5829" r="13.8531" fill="#FF2222"/>
<path d="M26.8142 11.4037C27.2646 12.6651 27.51 14.0241 27.51 15.4404C27.51 16.8566 27.2646 18.2156 26.8142 19.4771C26.5344 20.2607 26.1753 21.0068 25.7468 21.7055C22.998 26.1873 18.1024 29.243 15.471 33.7947C12.892 29.2466 8.04151 26.1866 5.29359 21.7386C4.85603 21.0303 4.49007 20.2731 4.20581 19.4771C3.75537 18.2156 3.51001 16.8566 3.51001 15.4404C3.51001 14.0241 3.75537 12.6651 4.20581 11.4037C5.41284 8.02359 8.09302 5.34341 11.4731 4.13626C12.7346 3.68573 14.0938 3.44037 15.51 3.44037C16.9263 3.44037 18.2854 3.68573 19.5469 4.13626C22.927 5.34341 25.6072 8.02359 26.8142 11.4037Z" fill="#FF2222"/>
<circle cx="15.51" cy="15.4619" r="10" fill="white"/>
<path d="M17.0143 10.745V19.4723H15.1691V12.4964H15.118L13.1194 13.7492V12.1129L15.2799 10.745H17.0143Z" fill="#FF2222"/>
</svg>
