<svg width="30" height="33" viewBox="0 0 30 33" fill="none" xmlns="http://www.w3.org/2000/svg">
<path opacity="0.25" d="M15.1609 0.122986C23.1467 0.122986 29.6208 6.59742 29.6208 14.5829C29.6206 22.5683 23.1466 29.0419 15.1609 29.0419C7.17526 29.0419 0.701142 22.5683 0.700928 14.5829C0.700928 6.59745 7.17513 0.12304 15.1609 0.122986Z" fill="#FF2222"/>
<circle opacity="0.33" cx="15.1608" cy="14.5822" r="12.8547" fill="#FF2222"/>
<circle opacity="0.33" cx="15.161" cy="14.5823" r="11.0482" fill="#FF2222"/>
<path d="M23.0002 14.0241C17.6669 14.0288 12.3336 14.0335 7.00025 14.0381C7.13385 14.3505 7.26746 14.6628 7.40107 14.9751C9.806 20.597 12.2109 26.2189 14.6159 31.8408C14.7495 32.1531 14.8831 32.4655 15.0167 32.7778C15.1497 32.4652 15.2828 32.1527 15.4159 31.8401C17.8109 26.214 20.206 20.5879 22.6011 14.9618C22.7341 14.6492 22.8672 14.3367 23.0002 14.0241Z" fill="white"/>
<circle cx="15.0483" cy="14.4723" r="10" fill="white"/>
<circle cx="15.0483" cy="14.4723" r="8" fill="#FF2222"/>
</svg>
