<svg width="30" height="33" viewBox="0 0 30 33" fill="none" xmlns="http://www.w3.org/2000/svg">
<path opacity="0.25" d="M15.1609 0.122986C23.1467 0.122986 29.6208 6.59742 29.6208 14.5829C29.6206 22.5683 23.1466 29.0419 15.1609 29.0419C7.17526 29.0419 0.701142 22.5683 0.700928 14.5829C0.700928 6.59745 7.17513 0.12304 15.1609 0.122986Z" fill="#FF2222"/>
<circle opacity="0.33" cx="15.1608" cy="14.5822" r="12.8547" fill="#FF2222"/>
<circle opacity="0.33" cx="15.161" cy="14.5823" r="11.0482" fill="#FF2222"/>
<circle cx="15.0483" cy="14.4723" r="10" fill="white"/>
<circle cx="15.0483" cy="14.4723" r="8" fill="#FF2222"/>
<path d="M17.001 23.0366C15.6676 23.0387 14.3343 23.0407 13.001 23.0427C13.0346 23.205 13.0681 23.3672 13.1017 23.5295C13.7062 26.45 14.3106 29.3705 14.915 32.291C14.9486 32.4533 14.9822 32.6155 15.0158 32.7778C15.0489 32.6154 15.082 32.4531 15.115 32.2907C15.7106 29.3684 16.3062 26.446 16.9017 23.5237C16.9348 23.3613 16.9679 23.199 17.001 23.0366Z" fill="white"/>
</svg>
